<?xml version="1.0" encoding="UTF-8"?>
<svg version="1.1" xmlns="http://www.w3.org/2000/svg" width="512" height="512">
<path d="M0 0 C5.1015586 3.71429267 8.29319426 8.55661781 10.78125 14.296875 C12.81957171 30.50054273 9.33611852 47.86221113 7.51339149 64.01325715 C7.03174614 68.30070565 6.56160587 72.58941862 6.08995056 76.87797546 C5.16699738 85.25353525 4.23361713 93.62790066 3.29657485 102.0018946 C2.20455004 111.76440343 1.12292142 121.52805588 0.04164676 131.2917602 C-1.88795773 148.71242156 -3.82704822 166.13201382 -5.77148438 183.55102539 C-7.65658817 200.43858027 -9.53474179 217.3268892 -11.40527344 234.21606445 C-11.52063546 235.25766925 -11.63599748 236.29927404 -11.75485532 237.37244261 C-11.92760474 238.9322047 -11.92760474 238.9322047 -12.10384405 240.52347714 C-14.23711357 259.78433526 -16.37690158 279.04446439 -18.51971202 298.30426325 C-19.27618225 305.10484862 -20.03072104 311.90564672 -20.7846489 318.70651436 C-21.70316845 326.99091971 -22.62544058 335.27489782 -23.5523691 343.55836666 C-24.02493011 347.78201994 -24.49595262 352.00582898 -24.96269798 356.23012924 C-25.39029438 360.09960281 -25.82249018 363.9685344 -26.25830801 367.83709037 C-26.41483224 369.23355145 -26.56971271 370.63019802 -26.72274546 372.02704603 C-29.36721031 396.13498701 -29.36721031 396.13498701 -38.00390625 403.90234375 C-43.53304733 407.77387785 -50.34762704 409.79747966 -57.10498047 409.10302734 C-64.44199213 407.79482591 -70.85824095 404.34729632 -77.46875 401.046875 C-78.74591425 400.41840626 -80.02359457 399.7909853 -81.30175781 399.16455078 C-83.95448879 397.86341877 -86.60495789 396.55783817 -89.25390625 395.24902344 C-94.86972492 392.47853916 -100.51171073 389.76252765 -106.15380859 387.04608154 C-107.97937732 386.16675612 -109.8042524 385.28600726 -111.62890625 384.40478516 C-119.2361103 380.73109525 -126.85056048 377.0727211 -134.46875 373.421875 C-144.94892953 368.39892071 -155.40718347 363.33148046 -165.86218262 358.25640869 C-175.78288503 353.44114174 -185.71469435 348.65012766 -195.66113281 343.88818359 C-201.66232658 341.0121655 -207.65474852 338.11866222 -213.640625 335.2109375 C-214.37095947 334.85626404 -215.10129395 334.50159058 -215.85375977 334.13616943 C-219.44180604 332.39337872 -223.02908592 330.64903616 -226.61523438 328.90234375 C-227.28021439 328.57940338 -227.9451944 328.25646301 -228.63032532 327.92373657 C-229.93958171 327.28678902 -231.24738188 326.64683857 -232.55363464 326.00375366 C-235.6608649 324.48433741 -238.76759136 323.04880804 -241.97973633 321.76416016 C-251.67814153 317.76923689 -251.67814153 317.76923689 -253.57421875 313.4921875 C-254.09204102 311.48754883 -254.09204102 311.48754883 -254.40625 309.421875 C-254.541521 308.70862061 -254.67679199 307.99536621 -254.81616211 307.26049805 C-255.3974302 303.34758231 -255.57919406 300.40121511 -253.28125 297.109375 C-251.97247815 295.79183905 -250.60818013 294.52905544 -249.21875 293.296875 C-248.1914082 292.2760397 -247.17115258 291.24804684 -246.15625 290.21484375 C-243.9000798 287.92290338 -241.62377062 285.65472477 -239.328125 283.40234375 C-236.37329645 280.48177153 -233.64430302 277.42128613 -230.95703125 274.25390625 C-228.00149937 270.92644227 -224.78593276 267.85723451 -221.62109375 264.73046875 C-219.58160627 262.66445135 -217.663672 260.56681951 -215.78125 258.359375 C-212.47528882 254.49069702 -208.88730322 250.93623195 -205.26806641 247.36572266 C-202.01890827 244.14337091 -198.99438666 240.80355684 -196.02734375 237.32421875 C-193.04346996 233.97944446 -189.81255268 230.88352343 -186.625 227.734375 C-184.56425655 225.64686865 -182.62359374 223.52518277 -180.71875 221.296875 C-178.02263859 218.14293335 -175.17058025 215.21314103 -172.21875 212.296875 C-169.28756809 209.40095542 -166.45471826 206.49444929 -163.78125 203.359375 C-160.47528882 199.49069702 -156.88730322 195.93623195 -153.26806641 192.36572266 C-150.01890827 189.14337091 -146.99438666 185.80355684 -144.02734375 182.32421875 C-141.04346996 178.97944446 -137.81255268 175.88352343 -134.625 172.734375 C-132.56425655 170.64686865 -130.62359374 168.52518277 -128.71875 166.296875 C-125.23422893 162.22064281 -121.43793019 158.50136627 -117.625 154.734375 C-115.56425655 152.64686865 -113.62359374 150.52518277 -111.71875 148.296875 C-109.02263859 145.14293335 -106.17058025 142.21314103 -103.21875 139.296875 C-100.28756809 136.40095542 -97.45471826 133.49444929 -94.78125 130.359375 C-91.47731387 126.49306676 -87.89179398 122.9405287 -84.2746582 119.37231445 C-80.9648017 116.08986404 -77.86937161 112.69049602 -74.84765625 109.14453125 C-72.58779503 106.58118747 -70.15926224 104.20981699 -67.69921875 101.83984375 C-66.00039495 100.15980128 -66.00039495 100.15980128 -64.21875 97.296875 C-64.30042489 93.72511385 -64.30042489 93.72511385 -65.21875 90.296875 C-68.08623169 87.96875442 -68.08623169 87.96875442 -71.59375 88.38671875 C-75.79962737 89.44272029 -77.29675129 90.7114981 -80.21875 93.859375 C-81.0746875 94.76816406 -81.930625 95.67695313 -82.8125 96.61328125 C-85.36558638 99.4606357 -87.89004668 102.32744847 -90.375 105.234375 C-93.37347516 108.58860145 -96.61297645 111.69839993 -99.8125 114.859375 C-101.87324345 116.94688135 -103.81390626 119.06856723 -105.71875 121.296875 C-108.41486141 124.45081665 -111.26691975 127.38060897 -114.21875 130.296875 C-117.14993191 133.19279458 -119.98278174 136.09930071 -122.65625 139.234375 C-125.96221118 143.10305298 -129.55019678 146.65751805 -133.16943359 150.22802734 C-136.41859173 153.45037909 -139.44311334 156.79019316 -142.41015625 160.26953125 C-145.39403004 163.61430554 -148.62494732 166.71022657 -151.8125 169.859375 C-153.87324345 171.94688135 -155.81390626 174.06856723 -157.71875 176.296875 C-161.20327107 180.37310719 -164.99956981 184.09238373 -168.8125 187.859375 C-170.87324345 189.94688135 -172.81390626 192.06856723 -174.71875 194.296875 C-177.41486141 197.45081665 -180.26691975 200.38060897 -183.21875 203.296875 C-186.14993191 206.19279458 -188.98278174 209.09930071 -191.65625 212.234375 C-194.96221118 216.10305298 -198.55019678 219.65751805 -202.16943359 223.22802734 C-205.41859173 226.45037909 -208.44311334 229.79019316 -211.41015625 233.26953125 C-214.39403004 236.61430554 -217.62494732 239.71022657 -220.8125 242.859375 C-222.87324345 244.94688135 -224.81390626 247.06856723 -226.71875 249.296875 C-229.41486141 252.45081665 -232.26691975 255.38060897 -235.21875 258.296875 C-238.14993191 261.19279458 -240.98278174 264.09930071 -243.65625 267.234375 C-246.52049155 270.58614703 -249.58231963 273.70218621 -252.71875 276.796875 C-256.56774606 280.59945823 -260.29034822 284.46060197 -263.78125 288.59765625 C-265.02131312 290.06349173 -266.33295415 291.46821783 -267.65625 292.859375 C-270.85595192 297.85090999 -269.05032221 303.89040877 -267.88606262 309.38702393 C-267.59151436 310.72383209 -267.59151436 310.72383209 -267.29101562 312.08764648 C-267.08619064 313.04451859 -266.88136566 314.00139069 -266.67033386 314.98725891 C-265.99534858 318.13233499 -265.31024636 321.27511388 -264.625 324.41796875 C-264.15354837 326.60501337 -263.68273211 328.79219505 -263.21252441 330.97950745 C-261.97600634 336.72325716 -260.73088409 342.46510835 -259.48394775 348.206604 C-258.21195114 354.07085641 -256.94811878 359.93686719 -255.68359375 365.80273438 C-253.20329003 377.30251473 -250.71389101 388.80030551 -248.21875 400.296875 C-245.84961968 400.53203892 -245.84961968 400.53203892 -243.64453125 397.734375 C-242.6009728 396.59381967 -241.56356395 395.44761764 -240.53125 394.296875 C-239.98960205 393.70108643 -239.4479541 393.10529785 -238.88989258 392.49145508 C-234.28834638 387.41633165 -229.76775337 382.27419451 -225.3125 377.0703125 C-224.36890625 375.97589844 -224.36890625 375.97589844 -223.40625 374.859375 C-222.84292969 374.20066406 -222.27960938 373.54195313 -221.69921875 372.86328125 C-219.43749195 370.47026688 -218.24735422 370.30011321 -214.90625 369.921875 C-211.21875 370.296875 -211.21875 370.296875 -208.28125 372.421875 C-206.21875 375.296875 -206.21875 375.296875 -205.53125 378.109375 C-207.29718458 386.29688985 -215.00306018 392.44873048 -220.55078125 398.4140625 C-223.25056887 401.33125615 -225.87281726 404.3022827 -228.4765625 407.3046875 C-231.28424267 410.51526348 -234.15202221 413.67135402 -237.015625 416.83203125 C-239.04275649 419.09997446 -241.006953 421.41007203 -242.96875 423.734375 C-245.4755695 426.58119991 -247.6042314 428.90667554 -251.21875 430.296875 C-254.58039721 430.22826995 -256.49986372 429.80668108 -259.24682617 427.85864258 C-262.18625602 424.03996765 -262.76076223 420.03689277 -263.70703125 415.37109375 C-263.92594025 414.3482428 -264.14484924 413.32539185 -264.37039185 412.27154541 C-264.8484285 410.0295041 -265.31995982 407.78606845 -265.78585815 405.54147339 C-266.5419871 401.93313627 -267.33282888 398.33385006 -268.13110352 394.73461914 C-270.9413831 381.92372102 -273.47363046 369.12577693 -275.53944397 356.17314148 C-276.43906104 350.55006927 -277.42604983 344.9431391 -278.43125057 339.3380785 C-279.12724487 335.42037868 -279.77223768 331.50730524 -280.30484009 327.56381226 C-282.25783661 310.55099979 -282.25783661 310.55099979 -291.17230225 296.66101074 C-298.051585 291.91972782 -305.92750501 289.14464973 -313.78860474 286.49038696 C-318.19325356 284.9577985 -322.25642071 282.98993307 -326.390625 280.8515625 C-327.66845559 280.22662882 -328.94803867 279.60526362 -330.22949219 278.98779297 C-331.1447467 278.54327789 -331.1447467 278.54327789 -332.07849121 278.08978271 C-343.35950327 272.61173492 -354.65123108 267.15690038 -365.9609375 261.73828125 C-371.46754649 259.0993998 -376.97071888 256.45358312 -382.46875 253.796875 C-383.39447311 253.34968613 -383.39447311 253.34968613 -384.33889771 252.89346313 C-387.44550489 251.39242726 -390.55127444 249.88969294 -393.65576172 248.38427734 C-399.24270861 245.67796953 -404.83813123 242.99620144 -410.4765625 240.3984375 C-411.43208008 239.95516113 -412.38759766 239.51188477 -413.37207031 239.05517578 C-415.11439813 238.24965393 -416.86082184 237.45289726 -418.61230469 236.66748047 C-426.67691687 232.92690879 -432.60839011 228.36336777 -436.33203125 220.13671875 C-438.89609897 211.92492478 -437.95080108 204.29111427 -434.09375 196.7109375 C-428.03117365 188.90537044 -420.43641522 185.14093299 -411.53125 181.234375 C-409.65779227 180.39261519 -407.78686998 179.5453925 -405.91610718 178.69766235 C-404.62496106 178.11268043 -403.33314428 177.52917665 -402.04067993 176.94711304 C-395.81192114 174.13568618 -389.66273085 171.16953571 -383.52035522 168.17507935 C-372.31963685 162.71521532 -361.05333638 157.41080879 -349.73828125 152.19140625 C-341.35495303 148.3142343 -333.02679164 144.33182799 -324.71875 140.296875 C-314.11131047 135.1451772 -303.44649098 130.13088346 -292.73828125 125.19140625 C-284.35495303 121.3142343 -276.02679164 117.33182799 -267.71875 113.296875 C-257.11131047 108.1451772 -246.44649098 103.13088346 -235.73828125 98.19140625 C-227.35495303 94.3142343 -219.02679164 90.33182799 -210.71875 86.296875 C-200.11131047 81.1451772 -189.44649098 76.13088346 -178.73828125 71.19140625 C-169.74099629 67.0302879 -160.81034075 62.74114846 -151.89398193 58.41061401 C-143.08562244 54.1349331 -134.23581881 49.95876943 -125.34375 45.859375 C-115.41344788 41.28046455 -105.55073107 36.5821674 -95.71875 31.796875 C-84.71319236 26.440504 -73.66012656 21.21032444 -62.54003906 16.09448242 C-56.57943944 13.34556706 -50.6464496 10.55132896 -44.75 7.66796875 C-44.13618469 7.36860413 -43.52236938 7.0692395 -42.88995361 6.76080322 C-39.95388461 5.32801091 -37.022178 3.88738229 -34.09667969 2.43310547 C-22.89963109 -3.04831651 -11.6572006 -6.5930069 0 0 Z " fill="#FE1B1F" transform="translate(469.21875,42.703125)"/>
<path d="M0 0 C0.66 0.33 1.32 0.66 2 1 C1.34 1.66 0.68 2.32 0 3 C-0.99 3 -1.98 3 -3 3 C-3 3.66 -3 4.32 -3 5 C-4.0725 5.4125 -5.145 5.825 -6.25 6.25 C-8.87742203 7.35489176 -10.11568906 8.11568906 -12.1875 10.1875 C-12.785625 10.785625 -13.38375 11.38375 -14 12 C-16.33333333 12 -18.66666667 12 -21 12 C-21 13.32 -21 14.64 -21 16 C-23.31 16.33 -25.62 16.66 -28 17 C-27.505 17.99 -27.505 17.99 -27 19 C-30.78187881 20.83691257 -32.94568308 21.15837626 -37 20 C-37 20.66 -37 21.32 -37 22 C-40.3440915 24.22939433 -41.18349338 24 -45 24 C-48.42070816 25.24389388 -50.73073532 27.16341916 -53 30 C-52.979375 30.763125 -52.95875 31.52625 -52.9375 32.3125 C-53.02184078 35.93915372 -54.6037851 37.57513679 -56.80859375 40.3515625 C-58.20153189 42.10556907 -58.20153189 42.10556907 -59 45 C-58.34 45 -57.68 45 -57 45 C-56.67 44.34 -56.34 43.68 -56 43 C-56 44.32 -56 45.64 -56 47 C-56.99 47.495 -56.99 47.495 -58 48 C-57.47731534 50.76276177 -56.89130413 53.3260876 -56 56 C-56.99 56.495 -56.99 56.495 -58 57 C-61.03201405 50.41237108 -61.22542739 43.12085582 -59.16015625 36.17578125 C-54.05864152 24.95931957 -44.52684722 20.39970097 -33.6875 15.625 C-32.44289099 15.06569271 -31.19891784 14.50496846 -29.95556641 13.94287109 C-28.08606303 13.09796429 -26.21617514 12.25409435 -24.34375 11.41567993 C-20.53722474 9.7092694 -16.76437296 7.94663954 -13.01171875 6.125 C-12.13362549 5.69880371 -11.25553223 5.27260742 -10.35083008 4.83349609 C-8.73485693 4.04471125 -7.12128477 3.25098292 -5.51049805 2.45166016 C-3.70096616 1.57564802 -1.85360526 0.7784282 0 0 Z M-18 12 C-17.01 12.495 -17.01 12.495 -16 13 C-16.99 13.495 -16.99 13.495 -18 14 C-18 13.34 -18 12.68 -18 12 Z " fill="#FECC00" transform="translate(92,208)"/>
<path d="M0 0 C0.66 0.33 1.32 0.66 2 1 C1.34 1.66 0.68 2.32 0 3 C-0.99 3 -1.98 3 -3 3 C-3 3.66 -3 4.32 -3 5 C-4.0725 5.4125 -5.145 5.825 -6.25 6.25 C-8.87742203 7.35489176 -10.11568906 8.11568906 -12.1875 10.1875 C-12.785625 10.785625 -13.38375 11.38375 -14 12 C-16.33333333 12 -18.66666667 12 -21 12 C-21 13.32 -21 14.64 -21 16 C-23.31 16.33 -25.62 16.66 -28 17 C-27.67 17.66 -27.34 18.32 -27 19 C-28.65 19.66 -30.3 20.32 -32 21 C-32.66 20.34 -33.32 19.68 -34 19 C-32.96571311 15.70275529 -31.90426429 14.9435598 -28.8671875 13.15307617 C-27.54276783 12.51967499 -26.21151462 11.90043332 -24.875 11.29296875 C-23.82094971 10.79848991 -23.82094971 10.79848991 -22.74560547 10.29402161 C-21.26223594 9.60153337 -19.77598157 8.91519588 -18.28710938 8.23461914 C-16.00155195 7.18821054 -13.72706798 6.12020511 -11.453125 5.04882812 C-10.01102069 4.37890654 -8.56833132 3.71024265 -7.125 3.04296875 C-6.44163574 2.72224899 -5.75827148 2.40152924 -5.05419922 2.0710907 C-3.39597988 1.31926891 -1.70024027 0.6512376 0 0 Z M-18 12 C-17.01 12.495 -17.01 12.495 -16 13 C-16.99 13.495 -16.99 13.495 -18 14 C-18 13.34 -18 12.68 -18 12 Z " fill="#FEB800" transform="translate(92,208)"/>
<path d="M0 0 C0.66 0.33 1.32 0.66 2 1 C0.58906526 5.85008818 0.58906526 5.85008818 -1 8 C-3.71580044 8.8616395 -6.12021452 8.86065554 -9 9 C-9.33 9.66 -9.66 10.32 -10 11 C-13.64653273 12.11421833 -16.33291043 11.94296589 -20 11 C-20.33 11.99 -20.66 12.98 -21 14 C-21.66 13.67 -22.32 13.34 -23 13 C-23 12.34 -23 11.68 -23 11 C-19.21450632 9.133029 -15.4206959 7.28362934 -11.625 5.4375 C-10.54476562 4.90447266 -9.46453125 4.37144531 -8.3515625 3.82226562 C-7.3203125 3.32275391 -6.2890625 2.82324219 -5.2265625 2.30859375 C-4.27346191 1.84251709 -3.32036133 1.37644043 -2.33837891 0.89624023 C-1.56671387 0.60048096 -0.79504883 0.30472168 0 0 Z " fill="#FF8400" transform="translate(147,182)"/>
<path d="M0 0 C2.31 0 4.62 0 7 0 C6.67 1.65 6.34 3.3 6 5 C7.175625 4.2265625 7.175625 4.2265625 8.375 3.4375 C9.674375 2.7259375 9.674375 2.7259375 11 2 C11.66 2.33 12.32 2.66 13 3 C13 4.32 13 5.64 13 7 C13.99 6.67 14.98 6.34 16 6 C16 6.66 16 7.32 16 8 C18.32782179 9.1639109 20.70631335 10.1012271 23.125 11.0625 C24.03507812 11.42472656 24.94515625 11.78695313 25.8828125 12.16015625 C26.58148438 12.43730469 27.28015625 12.71445312 28 13 C28 13.99 28 14.98 28 16 C23.96530333 14.72451525 20.19173454 13.2387032 16.3828125 11.3984375 C14.85527344 10.66367187 14.85527344 10.66367187 13.296875 9.9140625 C12.25015625 9.40617187 11.2034375 8.89828125 10.125 8.375 C9.05507812 7.859375 7.98515625 7.34375 6.8828125 6.8125 C4.25364318 5.54486479 1.62611698 4.2739434 -1 3 C-0.67 2.01 -0.34 1.02 0 0 Z " fill="#FE8A00" transform="translate(130,314)"/>
<path d="M0 0 C0.66 0.33 1.32 0.66 2 1 C1.01 2.485 1.01 2.485 0 4 C-0.99 4 -1.98 4 -3 4 C-3 4.66 -3 5.32 -3 6 C-4.32 6.33 -5.64 6.66 -7 7 C-7.0825 8.11375 -7.165 9.2275 -7.25 10.375 C-8 14 -8 14 -10.0625 15.4375 C-10.701875 15.623125 -11.34125 15.80875 -12 16 C-12.33 14.68 -12.66 13.36 -13 12 C-15.31 12 -17.62 12 -20 12 C-20.33 11.34 -20.66 10.68 -21 10 C-17.54781943 8.29969216 -14.08736011 6.61696948 -10.625 4.9375 C-9.64015625 4.45216797 -8.6553125 3.96683594 -7.640625 3.46679688 C-6.69960937 3.01240234 -5.75859375 2.55800781 -4.7890625 2.08984375 C-3.91975098 1.66566162 -3.05043945 1.24147949 -2.15478516 0.80444336 C-1.0881665 0.4062439 -1.0881665 0.4062439 0 0 Z " fill="#FEAA00" transform="translate(121,194)"/>
<path d="M0 0 C-3.55639236 2.30119506 -6.94718288 3.77472971 -11 5 C-11 5.66 -11 6.32 -11 7 C-11.82757813 7.18369141 -11.82757813 7.18369141 -12.671875 7.37109375 C-15.29591255 8.07993611 -17.7336953 9.03611256 -20.25 10.0625 C-21.14203125 10.42472656 -22.0340625 10.78695312 -22.953125 11.16015625 C-23.62859375 11.43730469 -24.3040625 11.71445313 -25 12 C-25.33 11.34 -25.66 10.68 -26 10 C-22.23690862 8.12980635 -18.46341175 6.2816544 -14.6875 4.4375 C-13.0797168 3.63795898 -13.0797168 3.63795898 -11.43945312 2.82226562 C-9.89741211 2.07299805 -9.89741211 2.07299805 -8.32421875 1.30859375 C-7.37635498 0.84251709 -6.42849121 0.37644043 -5.4519043 -0.10375977 C-3 -1 -3 -1 0 0 Z " fill="#FF7304" transform="translate(200,159)"/>
<path d="M0 0 C-0.99 0.33 -1.98 0.66 -3 1 C-2.67 1.99 -2.34 2.98 -2 4 C-7.29230769 8.06153846 -7.29230769 8.06153846 -10.875 7.75 C-11.57625 7.5025 -12.2775 7.255 -13 7 C-13 6.01 -13 5.02 -13 4 C-11.40233897 3.13372601 -9.79660056 2.28233535 -8.1875 1.4375 C-7.29417969 0.96183594 -6.40085938 0.48617187 -5.48046875 -0.00390625 C-3 -1 -3 -1 0 0 Z " fill="#FE8800" transform="translate(162,177)"/>
<path d="M0 0 C0 4.04016453 -1.46869212 4.9566059 -4.1875 7.875 C-5.00734375 8.75800781 -5.8271875 9.64101563 -6.671875 10.55078125 C-7.44015625 11.35902344 -8.2084375 12.16726563 -9 13 C-9.54140625 13.57105469 -10.0828125 14.14210938 -10.640625 14.73046875 C-12.35095648 16.48716464 -13.7926279 17.89631395 -16 19 C-16 17.35 -16 15.7 -16 14 C-15.01 14 -14.02 14 -13 14 C-11.38366977 12.70636389 -11.38366977 12.70636389 -9.86328125 10.9375 C-8.99799805 9.99003906 -8.99799805 9.99003906 -8.11523438 9.0234375 C-7.52033203 8.35570312 -6.92542969 7.68796875 -6.3125 7 C-5.70599609 6.33226562 -5.09949219 5.66453125 -4.47460938 4.9765625 C-2.97564929 3.32416555 -1.48463014 1.66526594 0 0 Z " fill="#FF4B10" transform="translate(236,429)"/>
<path d="M0 0 C3 1 3 1 4 3 C4.07065617 5.04055005 4.08421976 7.08334257 4.0625 9.125 C4.05347656 10.22070312 4.04445312 11.31640625 4.03515625 12.4453125 C4.02355469 13.28835938 4.01195312 14.13140625 4 15 C4.66 15.33 5.32 15.66 6 16 C5.34 16 4.68 16 4 16 C3.67 16.66 3.34 17.32 3 18 C2.49490792 15.75113762 1.99610821 13.50086131 1.5 11.25 C1.2215625 9.99703125 0.943125 8.7440625 0.65625 7.453125 C0 4 0 4 0 0 Z " fill="#F85A07" transform="translate(196,409)"/>
<path d="M0 0 C0.66 0.33 1.32 0.66 2 1 C2.33 1.99 2.66 2.98 3 4 C4.66072849 4.68132451 6.327767 5.34742127 8 6 C10 9 10 9 10 12 C5.00076875 10.67667408 1.60213075 7.39231845 -1 3 C-0.67 2.01 -0.34 1.02 0 0 Z " fill="#FECF00" transform="translate(36,264)"/>
<path d="M0 0 C0.99 0 1.98 0 3 0 C4.04187157 3.12561472 4.23843794 4.04680182 3 7 C0.9375 8.25 0.9375 8.25 -1 9 C-1.80967438 6.08517222 -2.21845993 4.53886783 -1.0625 1.6875 C-0.711875 1.130625 -0.36125 0.57375 0 0 Z " fill="#FE8A00" transform="translate(110,201)"/>
<path d="M0 0 C0 3.80345877 -1.13786331 4.77701015 -3.5 7.6875 C-4.1496875 8.49574219 -4.799375 9.30398438 -5.46875 10.13671875 C-5.9740625 10.75160156 -6.479375 11.36648438 -7 12 C-8.32 11.67 -9.64 11.34 -11 11 C-7.37 7.37 -3.74 3.74 0 0 Z " fill="#FF4511" transform="translate(232,324)"/>
<path d="M0 0 C-0.66 1.32 -1.32 2.64 -2 4 C-2.66 4 -3.32 4 -4 4 C-6.62788203 6.30935087 -7.87994369 7.63983107 -9 11 C-9.99 11.33 -10.98 11.66 -12 12 C-10.82763323 7.16398706 -5.40844892 0 0 0 Z " fill="#FED808" transform="translate(47,230)"/>
<path d="M0 0 C-0.33 1.65 -0.66 3.3 -1 5 C-3.97 4.505 -3.97 4.505 -7 4 C-7.33 4.99 -7.66 5.98 -8 7 C-8.66 6.67 -9.32 6.34 -10 6 C-10 5.34 -10 4.68 -10 4 C-8.71086513 3.32845067 -7.41859796 2.66291141 -6.125 2 C-5.40570313 1.62875 -4.68640625 1.2575 -3.9453125 0.875 C-2 0 -2 0 0 0 Z " fill="#FF9500" transform="translate(134,189)"/>
<path d="M0 0 C5.64997421 0.99705427 10.55305877 2.23720358 15 6 C12 7 12 7 9.08203125 5.78515625 C7.46361328 4.93244141 7.46361328 4.93244141 5.8125 4.0625 C4.72582031 3.49660156 3.63914062 2.93070312 2.51953125 2.34765625 C1.68808594 1.90292969 0.85664062 1.45820313 0 1 C0 0.67 0 0.34 0 0 Z " fill="#FFB600" transform="translate(98,301)"/>
<path d="M0 0 C0.33 0 0.66 0 1 0 C0.67 5.28 0.34 10.56 0 16 C-2.53309093 10.93381815 -2.59926188 8.02250886 -1 2.625 C-0.67 1.75875 -0.34 0.8925 0 0 Z " fill="#FF0067" transform="translate(457,267)"/>
<path d="M0 0 C3 2 3 2 3.51171875 4.1640625 C3.56972656 4.97617187 3.62773437 5.78828125 3.6875 6.625 C3.75324219 7.44226563 3.81898438 8.25953125 3.88671875 9.1015625 C3.92410156 9.72804688 3.96148437 10.35453125 4 11 C3.01 11.495 3.01 11.495 2 12 C1.34 8.04 0.68 4.08 0 0 Z " fill="#FF7200" transform="translate(189,377)"/>
<path d="M0 0 C0.99 0.33 1.98 0.66 3 1 C4.1875 3.5625 4.1875 3.5625 5 6 C0.25 5.25 0.25 5.25 -2 3 C-1.34 2.01 -0.68 1.02 0 0 Z " fill="#FEC50D" transform="translate(56,277)"/>
<path d="M0 0 C0.66 0.33 1.32 0.66 2 1 C0.76055724 1.86941494 -0.49207059 2.72005457 -1.75 3.5625 C-2.44609375 4.03816406 -3.1421875 4.51382813 -3.859375 5.00390625 C-6 6 -6 6 -8.265625 5.65234375 C-8.83796875 5.43707031 -9.4103125 5.22179687 -10 5 C-8.38007835 4.13624104 -6.75388139 3.28424146 -5.125 2.4375 C-4.22007812 1.96183594 -3.31515625 1.48617187 -2.3828125 0.99609375 C-1.20332031 0.50302734 -1.20332031 0.50302734 0 0 Z " fill="#FF6009" transform="translate(210,152)"/>
<path d="M0 0 C0.66 0 1.32 0 2 0 C1.67 4.62 1.34 9.24 1 14 C0.67 14 0.34 14 0 14 C-0.19627391 12.41773035 -0.38165538 10.83410729 -0.5625 9.25 C-0.66691406 8.36828125 -0.77132813 7.4865625 -0.87890625 6.578125 C-0.99456676 4.11567549 -0.73638695 2.33461936 0 0 Z " fill="#FF005A" transform="translate(445,368)"/>
<path d="M0 0 C2.00720923 0.28674418 4.0085944 0.61866701 6 1 C6.33 2.32 6.66 3.64 7 5 C1.25 3.25 1.25 3.25 -1 1 C-0.67 0.67 -0.34 0.34 0 0 Z " fill="#FF8204" transform="translate(165,332)"/>
<path d="M0 0 C0.66 0 1.32 0 2 0 C2.144375 0.598125 2.28875 1.19625 2.4375 1.8125 C2.8872439 3.56150404 3.42892341 5.28677023 4 7 C3.01 7.66 2.02 8.32 1 9 C0.67 6.03 0.34 3.06 0 0 Z " fill="#FF5307" transform="translate(205,450)"/>
<path d="M0 0 C0 0.99 0 1.98 0 3 C0.33 3.66 0.66 4.32 1 5 C-4.75 3.25 -4.75 3.25 -7 1 C-4.53721199 -0.231394 -2.7204945 -0.07159196 0 0 Z " fill="#FFC200" transform="translate(80,288)"/>
<path d="M0 0 C0.66 0.33 1.32 0.66 2 1 C1.67 2.98 1.34 4.96 1 7 C0.34 7 -0.32 7 -1 7 C-1.625 4.625 -1.625 4.625 -2 2 C-1.34 1.34 -0.68 0.68 0 0 Z " fill="#FF4E06" transform="translate(216,341)"/>
<path d="M0 0 C1.98 0 3.96 0 6 0 C6 0.99 6 1.98 6 3 C3 3 3 3 0 2 C0 1.34 0 0.68 0 0 Z " fill="#FF7700" transform="translate(149,181)"/>
</svg>
